<?xml version="1.0" encoding="utf-8"?>
<!-- Generator: Adobe Illustrator 18.0.0, SVG Export Plug-In . SVG Version: 6.00 Build 0)  -->
<!DOCTYPE svg PUBLIC "-//W3C//DTD SVG 1.1//EN" "http://www.w3.org/Graphics/SVG/1.1/DTD/svg11.dtd">
<svg version="1.1" id="Layer_1" xmlns="http://www.w3.org/2000/svg" xmlns:xlink="http://www.w3.org/1999/xlink" x="0px" y="0px"
	 viewBox="0 0 1874.3 394" enable-background="new 0 0 1874.3 394" xml:space="preserve">
<g>
	<path fill="#FF6961" d="M800,103.9c-15,0-29.5,4.7-43.7,14.6c-14.5,9.4-24.3,21.4-29.7,35.1c-5.2,13.3-4.6,24.8,2.4,34.7
		c4.2,6,13.6,13.3,27.5,21.8h0c11.5,9,18.8,15.4,21.8,19.7c5.7,8.1,6.4,18.4,1.9,30c-4.5,11.6-13.2,21.8-25.3,30
		c-12.1,8.1-25,12.4-37.7,12.4c-12.7,0-21.8-4.3-27.5-12.4c-6.2-8.1-6.4-18.4-1.5-30.8l-22.5,4.7c-5.7,14.6-4.2,27.4,4.3,39.4
		c8,12,21.6,18,39.8,18c18.8,0,36.6-6,54.4-18c17.8-12,29.6-26.5,36.2-43.2c6.5-16.7,6.1-31.2-2.3-43.2
		c-5.6-7.3-15.8-15.8-31.7-25.7c-9.3-7.3-15.8-12.4-18.2-15.8c-4.2-6-4.6-13.3-1.5-21.4c3.4-8.6,9.5-15.8,18.4-21.8
		c8.9-6,18.1-9,27.4-9c8.9,0,15.4,2.6,19.3,8.1c3.6,5.1,4.2,13.3,1.6,23.5l20.3-6.4l0.3-0.9c4.4-11.1,3.5-21-2.3-30
		C825.5,108.1,814.5,103.9,800,103.9z"/>
	<polygon fill="#FF6961" points="982.2,129.1 989.6,110.3 944.1,110.3 978.3,23 957.7,23 923.5,110.3 877.5,110.3 870.2,129.1 
		916.1,129.1 843,315.7 863.6,315.7 936.7,129.1 	"/>
	<path fill="#FF6961" d="M1108.1,105.6c-19.6,0.9-41.2,9.4-66,26.1c-7.6,5.1-15,10.7-21.4,16.3l14.8-37.7h-20.6l-80.5,205.4H955
		l41.6-106.1c10.7-24.8,29.2-45.8,55.5-63.8c18.9-12.4,34.7-19.3,48-19.7L1108.1,105.6z"/>
	<path fill="#FF6961" d="M1318.9,129.1c-0.4-1.3-1.5-2.1-2.4-3.4c-2.4-3.4-5-6.4-7.1-9.4c-16.1-16.3-38.7-24.4-68.7-24.4
		c-34.7,0-68.6,11.1-101.9,33.8c-33.6,22.3-56.3,49.2-68.7,80.9c-12.4,31.7-10.9,59.1,5.2,81.3c15.7,22.3,40.7,33.8,75.4,33.8
		c34.7,0,69.2-11.6,102.3-33.8c7-4.7,13.1-9.4,19.3-14.6l-19.4-6.8c-2.9,2.6-6.5,4.7-9.9,7.3c-27.4,18.4-55.9,27.8-84.5,27.8
		c-26.7,0-46.5-8.1-59.4-24.4l198.6-133.5L1318.9,129.1z M1090.5,263.5c-7.2-16.3-6.7-35.5,1.7-56.9c10.2-26.1,29.3-48.4,56.6-66.8
		c27.5-18.8,55.4-27.8,84-27.8c23.9,0,42.2,6,55,18.8L1090.5,263.5z"/>
	<path fill="#FF6961" d="M1583.4,110.3l-11.4,29.1c-1.9-4.7-4.8-9.4-7.8-13.7c-15.5-22.7-41.1-33.8-75.8-33.8
		c-34.7,0-68.6,11.1-101.9,33.8c-33.6,22.3-56.3,49.2-68.9,81.3c-12.2,31.2-10.8,58.6,5.3,80.9c15.7,22.3,40.7,33.8,75.4,33.8
		c34.7,0,69.2-11.6,102.3-33.8c6.4-4.3,12.9-9,18.7-14.1l-16.4,41.9h20.6l80.5-205.4H1583.4z M1406.3,301.6
		c-28.6,0-49.3-9.4-62.7-27.8c-12.9-18.4-14.1-40.7-3.8-66.8c10.4-26.5,29-48.8,56.3-67.2c28-18.8,55.9-27.8,84.5-27.8
		c28.6,0,49.9,9,62.7,27.8c9.6,13.7,13.1,30,9.7,48.4l-14.6,37.2c-11,18.4-27,34.2-47.5,48.4
		C1463.4,292.2,1434.9,301.6,1406.3,301.6z"/>
	<path fill="#FF6961" d="M1867.4,116.3c-8.4-12-21.6-18-40.3-18c-18.3,0-36.6,6-53.9,18c-4.9,3-9.7,6.8-13.4,10.3
		c-1.3-3.9-3.2-7.3-5.4-10.3c-8.4-12-21.6-18-40.3-18c-17.8,0-35,5.6-52.7,17.1l2-5.1h-20.6l-80.5,205.4h20.6l62.7-160.1
		c5.4-10.3,13.2-19.3,23.8-26.1c12.1-8.1,24.6-12.4,37.2-12.4c12.7,0,22.2,4.3,28,12.4c5.4,7.7,6.6,16.7,2.7,27.8l-62,158.4h20.6
		l60.9-155.4c4.9-12.4,13.1-22.7,25.7-30.8c12.1-8.1,24.6-12.4,37.2-12.4c12.7,0,21.8,4.3,28,12.4c5.4,7.7,6.1,16.7,2.7,27.8h-0.5
		l-62,158.4h20.6l62-158.4C1876.5,141.1,1875.3,127.4,1867.4,116.3z"/>
	<linearGradient id="SVGID_1_" gradientUnits="userSpaceOnUse" x1="13.8148" y1="182.9641" x2="581.8148" y2="10.9641">
		<stop  offset="0" style="stop-color:#0CA0E8"/>
		<stop  offset="0.3498" style="stop-color:#4FB751"/>
		<stop  offset="0.67" style="stop-color:#FD4627"/>
		<stop  offset="1" style="stop-color:#F89F22"/>
	</linearGradient>
	<path fill="url(#SVGID_1_)" d="M191,106h-90.6l4.3-16c1.7-6.3,4.5-12.3,8.3-17.8c3.7-5.4,8.2-10.1,13.2-14
		c4.9-3.9,10.5-7.1,16.6-9.3c6-2.3,12.3-3.4,18.8-3.4h37.6L211.3,0h-35.1c-12.6,0-25.2,2.4-37.7,7.2c-12.6,4.9-24.4,11.6-34.9,19.8
		c-10.6,8.2-20,18.1-27.9,29.4c-7.8,11.2-13.5,23.3-16.9,35.9L55.1,106H28.5l-12.2,45.4H43L0,311.7h45.3l43-160.4h45.4L191,106z"/>
	<linearGradient id="SVGID_2_" gradientUnits="userSpaceOnUse" x1="48.4464" y1="297.3289" x2="616.4464" y2="125.3289">
		<stop  offset="0" style="stop-color:#0CA0E8"/>
		<stop  offset="0.3498" style="stop-color:#4FB751"/>
		<stop  offset="0.67" style="stop-color:#FD4627"/>
		<stop  offset="1" style="stop-color:#F89F22"/>
	</linearGradient>
	<path fill="url(#SVGID_2_)" d="M289.7,106l-30.9,115.4c-1.6,6.1-4.4,12.2-8.3,18.1c-3.9,5.7-8.4,10.9-13.5,15.5
		c-5.2,4.5-10.9,8.2-17,11.1c-6.3,2.9-12.7,4.3-18.9,4.3c-6.3,0-12.1-1.1-17.2-3.1c-5.4-2.3-9.7-5.7-12.9-10.1
		c-3.2-4.4-5.1-10-5.9-16.4c-0.7-6.2,0-13.5,2.2-21.7l26.5-98.9L135.8,168l-14.3,53.4c-4,14.8-5.2,28.2-3.5,39.8
		c1.6,11.6,5.4,21.5,11.3,29.4c6,8,13.9,14.2,23.5,18.5c9.9,4.4,21.1,6.7,33.6,6.7c5.7,0,11.8-1.2,18.2-3.6
		c6.2-2.3,12.9-4.8,20.4-7.6l13.4-5.1l-8,11.9c-3.5,5.2-7.6,10.1-12.1,14.4c-4.6,4.5-9.5,8.3-14.9,11.6c-5.3,3.2-10.9,5.8-16.7,7.6
		c-5.8,1.9-11.7,2.9-17.5,2.9l-9.9-0.4l-12.3,46l5.1,0.3c14.4,0,28.9-2.8,43.1-8.3c14.4-5.6,27.8-13.3,39.9-22.8
		c12.1-9.5,22.9-20.8,31.9-33.7c9-12.8,15.6-26.6,19.6-41.2l48.8-182H289.7z"/>
	<linearGradient id="SVGID_3_" gradientUnits="userSpaceOnUse" x1="49.2532" y1="299.9934" x2="617.2532" y2="127.9934">
		<stop  offset="0" style="stop-color:#0CA0E8"/>
		<stop  offset="0.3498" style="stop-color:#4FB751"/>
		<stop  offset="0.67" style="stop-color:#FD4627"/>
		<stop  offset="1" style="stop-color:#F89F22"/>
	</linearGradient>
	<path fill="url(#SVGID_3_)" d="M433.2,151.8h4.8c12-13.6,30.9-35.2,52.2-45.4h-42.4c-11.4,0-23.3,2.1-35.2,6.3
		c-11.9,4.2-23.3,10.3-33.9,17.9l-4.6,3.4l-12.4-28h-6.7L300,311.7h45.3l30.8-115c1.7-6.3,4.4-12.2,8.2-17.6
		c3.9-5.5,8.4-10.3,13.3-14.2c5.2-4.1,10.8-7.3,16.9-9.5c5.4-2,10.8-3.2,16.2-3.5C431.6,151.8,432.4,151.8,433.2,151.8z"/>
	<linearGradient id="SVGID_4_" gradientUnits="userSpaceOnUse" x1="64.2153" y1="349.403" x2="632.2153" y2="177.403">
		<stop  offset="0" style="stop-color:#0CA0E8"/>
		<stop  offset="0.3498" style="stop-color:#4FB751"/>
		<stop  offset="0.67" style="stop-color:#FD4627"/>
		<stop  offset="1" style="stop-color:#F89F22"/>
	</linearGradient>
	<path fill="url(#SVGID_4_)" d="M627.6,123.4c-4.9-5.5-10.4-10.2-16.6-13.8c-6.2-3.8-13.2-6.7-20.7-8.7c-7.7-2-15.8-3.1-24.3-3.1
		c-14.5,0-29,2.7-43.2,7.9c-2.4,0.9-4.7,1.8-7,2.8c-3.7,1.6-7.3,3.4-10.9,5.3c-7.6,4.1-15,8.9-21.9,14.3
		c-8.7,6.8-16.7,14.8-23.9,23.7c-2.4,2.9-4.7,6-6.9,9.2c-0.5,0.7-0.9,1.3-1.4,2c-9.2,13.6-16.1,28.7-20.5,45.1
		c-4.3,15.9-5.4,30.7-3.5,43.8c2,13.3,6.3,24.3,13.1,33.8c6.8,9.4,15.9,16.8,26.9,22c11.1,5.3,24,8,38.4,8c8.4,0,17.2-1,26.1-3
		c8.5-1.9,17.2-4.9,25.8-8.8c8.6-4,16.9-8.7,24.7-14.2c6.9-4.9,13.4-10.3,19.3-16.1l-20.9-27.8c-17.3,15-49.9,30.9-74.2,22.3
		l-7.2-2.6l139.1-126.7C635.2,133.2,631.7,128,627.6,123.4z M559.4,144.4c3,0.3,5.8,1.1,8.3,2.1l6.4,2.7l-97,94.9l-2.1-7.4
		c-0.7-2.3-1-4.9-1.1-7.6c0-2.5,0.1-5.1,0.3-8c0.2-3,0.8-6,1.2-8.2c0.6-3,1-5.3,1.6-7.2c2.5-9.3,6.3-17.9,11.3-25.5
		c5-7.6,10.8-14.1,17.4-19.4c6.6-5.4,13.9-9.6,21.7-12.5c7.9-2.9,15.9-4.4,23.9-4.4C554.1,144,556.8,144.1,559.4,144.4z"/>
</g>
</svg>
